<?xml version="1.0" standalone="no"?>
<!DOCTYPE svg PUBLIC "-//W3C//DTD SVG 20010904//EN"
 "http://www.w3.org/TR/2001/REC-SVG-20010904/DTD/svg10.dtd">
<svg version="1.0" xmlns="http://www.w3.org/2000/svg"
 width="400pt" height="400pt" viewBox="0 0 400 400"
 preserveAspectRatio="xMidYMid meet">
<metadata>
Created by potrace 1.13, written by Peter Selinger 2001-2015
</metadata>
<g transform="translate(0.000000,400.000000) scale(0.100000,-0.100000)"
 stroke="none">
<path fill="#D40000" d="M2285 3398 c-3 -7 -4 -663 -3 -1458 l3 -1445 461 -3 c539 -3 630 5
774 65 259 107 402 311 435 620 22 209 -16 446 -91 565 -13 21 -24 40 -24 44
0 12 -65 90 -115 137 -30 29 -86 65 -143 92 -85 41 -108 65 -64 65 29 0 124
53 173 98 115 103 171 267 172 507 1 280 -89 472 -281 598 -82 54 -179 90
-297 111 -119 21 -993 24 -1000 4z m966 -334 c110 -31 164 -65 213 -134 52
-72 67 -124 73 -245 9 -193 -27 -303 -129 -385 -70 -57 -131 -78 -255 -90
-134 -13 -509 -13 -534 0 -18 10 -19 26 -19 434 0 232 3 426 7 429 3 4 138 7
298 7 234 0 302 -3 346 -16z m36 -1199 c167 -43 266 -138 314 -302 26 -89 28
-327 4 -417 -45 -170 -157 -281 -321 -317 -75 -17 -651 -24 -669 -9 -13 11
-15 85 -15 530 0 284 3 520 7 523 3 4 145 7 314 7 240 0 321 -3 366 -15z"/>
<path fill="#2B0000" d="M257 3373 c-4 -3 -7 -645 -7 -1425 l0 -1418 250 0 250 0 2 550 c2
356 7 551 13 552 6 1 30 -25 55 -59 62 -85 147 -204 195 -273 22 -32 78 -111
125 -176 47 -66 93 -132 103 -147 10 -16 22 -34 27 -40 6 -7 43 -58 83 -114
39 -56 103 -145 140 -197 l68 -96 316 0 315 0 -36 48 c-19 26 -52 72 -73 102
-21 30 -81 116 -134 190 -52 74 -126 178 -162 230 -37 52 -74 104 -81 115 -8
11 -58 81 -110 155 -53 74 -102 143 -109 153 -6 11 -49 70 -94 133 -46 63 -83
117 -83 121 0 3 -7 13 -15 22 -37 39 -155 214 -155 230 0 15 37 74 72 116 13
15 206 285 226 316 18 27 133 187 327 457 67 92 136 190 155 217 19 28 38 55
42 60 39 48 118 165 118 174 0 8 -85 11 -284 11 l-285 0 -24 -32 c-29 -41 -83
-116 -210 -295 -287 -402 -327 -459 -336 -469 -5 -6 -29 -40 -54 -76 -78 -115
-112 -157 -122 -154 -6 2 -11 184 -13 514 l-2 512 -243 0 c-134 0 -247 -3
-250 -7z"/>
</g>
</svg>
